<?xml version="1.0" encoding="UTF-8" standalone="no"?>
<svg
   height="16"
   viewBox="0 0 16 16"
   width="16"
   version="1.1"
   id="svg1"
   sodipodi:docname="RustPlayer3D.svg"
   inkscape:version="1.4 (e7c3feb, 2024-10-09)"
   xml:space="preserve"
   xmlns:inkscape="http://www.inkscape.org/namespaces/inkscape"
   xmlns:sodipodi="http://sodipodi.sourceforge.net/DTD/sodipodi-0.dtd"
   xmlns="http://www.w3.org/2000/svg"
   xmlns:svg="http://www.w3.org/2000/svg"><defs
     id="defs1" /><sodipodi:namedview
     id="namedview1"
     pagecolor="#505050"
     bordercolor="#eeeeee"
     borderopacity="1"
     inkscape:showpageshadow="0"
     inkscape:pageopacity="0"
     inkscape:pagecheckerboard="0"
     inkscape:deskcolor="#505050"
     showgrid="false"
     inkscape:zoom="25.09375"
     inkscape:cx="4.3038605"
     inkscape:cy="6.5952677"
     inkscape:window-width="1854"
     inkscape:window-height="1011"
     inkscape:window-x="66"
     inkscape:window-y="32"
     inkscape:window-maximized="1"
     inkscape:current-layer="svg1" /><path
     d="M6.492 1a1 1 0 0 0-1 1v3a1 1 0 0 0 1 1h1v.99a1 1 0 0 0-.316.062l-2.051.684-.684-2.051a1 1 0 0 0-1.898.631l1 3a1 1 0 0 0 1.265.633l1.684-.56v.61c0 .041.019.076.024.116l-4.579 3.052a1 1 0 1 0 1.11 1.664l5.056-3.37 1.495 2.986a1 1 0 0 0 1.21.502l3-1a1 1 0 1 0-.632-1.897l-2.178.725-.975-1.951a.981.981 0 0 0 .469-.827V9h1.383l.722 1.448a1 1 0 1 0 1.79-.895l-1-2A1 1 0 0 0 12.492 7h-3V6h1a1 1 0 0 0 1-1V2a1 1 0 0 0-1-1zm0 2h1v2h-1z"
     fill="#fc7f7f"
     id="path1" /><g
     id="g1"
     transform="matrix(0.10383269,0,0,0.10549586,5.0955566,4.9639507)"><path
       d="m 103.949,51.049 -4.394,-2.72 a 59.613,59.613 0 0 0 -0.125,-1.28 l 3.776,-3.522 c 0.384,-0.358 0.556,-0.888 0.452,-1.401 a 1.506,1.506 0 0 0 -0.953,-1.122 L 97.878,39.199 A 56.156,56.156 0 0 0 97.5,37.953 l 3.011,-4.182 a 1.512,1.512 0 0 0 -0.984,-2.377 l -5.09,-0.828 a 42.893,42.893 0 0 0 -0.612,-1.143 l 2.139,-4.695 a 1.506,1.506 0 0 0 -0.118,-1.468 1.504,1.504 0 0 0 -1.31,-0.671 l -5.166,0.18 a 40.822,40.822 0 0 0 -0.816,-0.99 l 1.187,-5.032 a 1.512,1.512 0 0 0 -1.819,-1.82 l -5.031,1.186 A 43.417,43.417 0 0 0 81.899,15.297 L 82.08,10.131 A 1.51,1.51 0 0 0 79.942,8.702 l -4.694,2.14 A 54.472,54.472 0 0 0 74.105,10.229 L 73.275,5.138 A 1.513,1.513 0 0 0 70.899,4.154 L 66.714,7.165 A 45.914,45.914 0 0 0 65.47,6.788 L 63.665,1.96 A 1.509,1.509 0 0 0 61.143,1.457 L 57.621,5.236 C 57.196,5.189 56.768,5.146 56.341,5.111 l -2.72,-4.395 a 1.512,1.512 0 0 0 -2.571,0 L 48.33,5.111 C 47.902,5.146 47.474,5.189 47.049,5.236 L 43.526,1.457 A 1.51,1.51 0 0 0 41.004,1.96 l -1.805,4.828 c -0.418,0.12 -0.832,0.247 -1.245,0.377 L 33.77,4.154 a 1.515,1.515 0 0 0 -2.377,0.984 l -0.83,5.091 c -0.384,0.199 -0.764,0.404 -1.143,0.613 l -4.694,-2.14 a 1.507,1.507 0 0 0 -1.467,0.119 c -0.436,0.29 -0.691,0.787 -0.671,1.31 l 0.18,5.166 c -0.334,0.267 -0.665,0.54 -0.992,0.816 l -5.031,-1.186 a 1.517,1.517 0 0 0 -1.417,0.403 1.51,1.51 0 0 0 -0.403,1.417 l 1.185,5.032 a 48.63,48.63 0 0 0 -0.814,0.99 l -5.166,-0.18 a 1.511,1.511 0 0 0 -1.429,2.139 l 2.14,4.695 a 46.02,46.02 0 0 0 -0.613,1.143 l -5.09,0.828 a 1.513,1.513 0 0 0 -0.984,2.377 l 3.011,4.182 c -0.131,0.413 -0.258,0.828 -0.378,1.246 l -4.828,1.805 a 1.51,1.51 0 0 0 -0.501,2.523 l 3.777,3.522 c -0.047,0.425 -0.089,0.853 -0.125,1.28 l -4.394,2.72 a 1.51,1.51 0 0 0 0,2.571 l 4.394,2.72 c 0.036,0.428 0.078,0.855 0.125,1.28 l -3.777,3.523 a 1.512,1.512 0 0 0 0.501,2.522 l 4.828,1.805 c 0.12,0.418 0.247,0.833 0.378,1.246 l -3.011,4.183 a 1.511,1.511 0 0 0 0.985,2.376 l 5.089,0.828 c 0.199,0.386 0.403,0.766 0.613,1.145 l -2.14,4.693 a 1.51,1.51 0 0 0 0.119,1.468 c 0.292,0.437 0.789,0.692 1.31,0.671 l 5.164,-0.181 c 0.269,0.336 0.54,0.665 0.816,0.992 l -1.185,5.033 c -0.12,0.51 0.031,1.043 0.403,1.414 0.369,0.373 0.906,0.522 1.417,0.402 l 5.031,-1.185 c 0.327,0.278 0.658,0.548 0.992,0.814 l -0.18,5.167 a 1.51,1.51 0 0 0 2.138,1.428 l 4.694,-2.139 c 0.378,0.21 0.758,0.414 1.143,0.613 l 0.83,5.088 a 1.515,1.515 0 0 0 2.377,0.986 l 4.182,-3.013 a 47.2,47.2 0 0 0 1.246,0.379 l 1.805,4.826 c 0.183,0.49 0.607,0.853 1.122,0.953 a 1.503,1.503 0 0 0 1.4,-0.452 l 3.523,-3.777 c 0.425,0.049 0.853,0.09 1.281,0.128 l 2.72,4.394 a 1.513,1.513 0 0 0 2.571,0 l 2.72,-4.394 a 49.06,49.06 0 0 0 1.28,-0.128 l 3.522,3.777 c 0.357,0.384 0.887,0.556 1.4,0.452 a 1.508,1.508 0 0 0 1.122,-0.953 l 1.805,-4.826 a 47.2,47.2 0 0 0 1.246,-0.379 l 4.183,3.013 a 1.513,1.513 0 0 0 2.376,-0.986 l 0.83,-5.088 c 0.384,-0.199 0.764,-0.406 1.143,-0.613 l 4.694,2.139 a 1.51,1.51 0 0 0 2.138,-1.428 l -0.18,-5.167 c 0.334,-0.267 0.665,-0.536 0.991,-0.814 l 5.031,1.185 a 1.504,1.504 0 0 0 1.416,-0.402 c 0.372,-0.371 0.523,-0.904 0.403,-1.414 l -1.185,-5.033 c 0.276,-0.327 0.548,-0.656 0.814,-0.992 l 5.166,0.181 a 1.505,1.505 0 0 0 1.31,-0.671 c 0.292,-0.436 0.337,-0.991 0.118,-1.468 l -2.139,-4.693 c 0.209,-0.379 0.414,-0.759 0.612,-1.145 l 5.09,-0.828 a 1.511,1.511 0 0 0 0.984,-2.376 l -3.011,-4.183 c 0.13,-0.413 0.257,-0.828 0.378,-1.246 l 4.827,-1.805 c 0.491,-0.184 0.853,-0.607 0.953,-1.122 a 1.503,1.503 0 0 0 -0.452,-1.4 L 99.429,57.62 c 0.046,-0.425 0.088,-0.853 0.125,-1.28 l 4.394,-2.72 a 1.51,1.51 0 0 0 0.001,-2.571 z M 74.54,87.5 a 3.114,3.114 0 0 1 -2.385,-3.699 3.104,3.104 0 0 1 3.689,-2.389 3.112,3.112 0 0 1 2.387,3.696 A 3.112,3.112 0 0 1 74.54,87.5 Z M 73.047,77.402 a 2.833,2.833 0 0 0 -3.365,2.18 l -1.56,7.28 a 38.104,38.104 0 0 1 -15.79,3.399 38.141,38.141 0 0 1 -16.121,-3.552 l -1.559,-7.28 A 2.832,2.832 0 0 0 31.288,77.25 l -6.427,1.38 A 38.133,38.133 0 0 1 21.538,74.713 H 52.81 c 0.354,0 0.59,-0.064 0.59,-0.386 V 63.265 c 0,-0.322 -0.236,-0.386 -0.59,-0.386 h -9.146 v -7.012 h 9.892 c 0.903,0 4.828,0.258 6.083,5.275 0.393,1.543 1.256,6.562 1.846,8.169 0.588,1.802 2.982,5.402 5.533,5.402 h 15.583 c 0.177,0 0.366,-0.02 0.565,-0.056 a 38.398,38.398 0 0 1 -3.544,4.158 z m -43.252,9.946 a 3.107,3.107 0 0 1 -3.691,-2.389 3.115,3.115 0 0 1 2.386,-3.699 3.114,3.114 0 0 1 1.305,6.088 z M 17.932,39.243 a 3.114,3.114 0 0 1 -1.581,4.107 3.106,3.106 0 0 1 -4.101,-1.584 3.114,3.114 0 0 1 1.581,-4.107 3.106,3.106 0 0 1 4.101,1.584 z m -3.646,8.643 6.695,-2.975 a 2.838,2.838 0 0 0 1.441,-3.744 l -1.379,-3.118 h 5.423 V 62.493 H 15.525 A 38.308,38.308 0 0 1 14.067,51.997 c 0,-1.389 0.075,-2.762 0.219,-4.111 z m 29.38,-2.374 V 38.307 H 56.58 c 0.667,0 4.71,0.771 4.71,3.794 0,2.51 -3.101,3.41 -5.651,3.41 H 43.666 Z m 46.932,6.485 c 0,0.956 -0.035,1.902 -0.105,2.841 h -3.926 c -0.393,0 -0.551,0.258 -0.551,0.643 v 1.803 c 0,4.244 -2.393,5.167 -4.49,5.402 -1.997,0.225 -4.211,-0.836 -4.484,-2.058 -1.178,-6.626 -3.141,-8.041 -6.241,-10.486 3.847,-2.443 7.85,-6.047 7.85,-10.871 0,-5.209 -3.571,-8.49 -6.005,-10.099 C 69.231,26.921 65.45,26.47 64.43,26.47 H 23.827 C 29.333,20.325 36.795,15.972 45.235,14.388 l 4.786,5.021 a 2.83,2.83 0 0 0 4.006,0.092 l 5.355,-5.122 c 11.221,2.089 20.721,9.074 26.196,18.657 l -3.666,8.28 a 2.841,2.841 0 0 0 1.442,3.744 l 7.058,3.135 c 0.122,1.253 0.186,2.519 0.186,3.802 z M 50.023,10.117 a 3.105,3.105 0 0 1 4.394,0.101 3.115,3.115 0 0 1 -0.103,4.401 3.103,3.103 0 0 1 -4.394,-0.102 3.116,3.116 0 0 1 0.103,-4.4 z m 36.38,29.277 a 3.105,3.105 0 0 1 4.1,-1.583 3.114,3.114 0 0 1 1.581,4.107 3.105,3.105 0 0 1 -4.101,1.584 3.117,3.117 0 0 1 -1.58,-4.108 z"
       id="path1-5" /><path
       style="fill:#d46e00;fill-opacity:1;stroke-width:0.996264"
       d="m 597.33104,665.24061 c -1.33094,-0.67685 -5.82574,-6.61047 -9.98843,-13.18582 -7.07093,-11.16914 -7.79611,-11.97742 -11.02967,-12.29369 -3.25905,-0.31877 -4.04741,0.28715 -13.50236,10.37775 -8.73748,9.32488 -10.45759,10.71627 -13.24794,10.71627 -1.7637,0 -3.88225,-0.67553 -4.70792,-1.5012 -0.82566,-0.82566 -3.67241,-7.28892 -6.32612,-14.36281 -4.569,-12.1794 -5.01189,-12.93353 -8.3499,-14.21772 l -3.52497,-1.35612 -10.27581,7.44829 c -12.56634,9.10859 -14.30507,10.03972 -17.32984,9.28054 -3.80518,-0.95504 -5.09526,-4.18772 -7.3769,-18.48504 -1.1792,-7.38916 -2.22535,-13.49653 -2.32478,-13.57193 -0.0994,-0.0754 -1.52573,-0.81707 -3.16956,-1.64815 -2.89864,-1.46549 -3.37945,-1.33463 -15.94023,4.33808 -7.12328,3.21703 -13.75636,5.85742 -14.74017,5.86755 -0.98381,0.0101 -2.93086,-1.12371 -4.32678,-2.51963 l -2.53802,-2.53802 0.69794,-14.64753 0.69795,-14.64753 -2.91499,-2.13763 -2.91498,-2.13762 -11.88707,2.86218 c -14.75345,3.55235 -18.70218,3.68398 -20.79696,0.69326 -2.12351,-3.03173 -1.99365,-4.76157 1.44357,-19.22931 l 2.99445,-12.6041 -2.01908,-2.83553 -2.01908,-2.83554 -14.22134,0.57621 c -15.53423,0.62941 -17.98303,0.0839 -19.682,-4.38475 -0.81959,-2.15571 -0.0207,-4.69471 5.06616,-16.10199 5.99793,-13.45024 6.02786,-13.56374 4.38285,-16.61834 -1.61384,-2.99672 -1.99997,-3.13166 -15.05398,-5.26107 -14.83975,-2.42069 -16.91073,-3.18232 -18.25297,-6.71267 -1.2631,-3.32222 -0.74318,-4.38603 8.24172,-16.86326 6.80289,-9.4471 7.79502,-11.34356 7.28042,-13.91656 -0.32769,-1.63843 -0.96569,-3.34885 -1.41778,-3.80095 -0.45209,-0.45208 -6.38391,-2.87409 -13.18182,-5.38223 -6.7979,-2.50813 -13.14439,-5.24789 -14.10329,-6.08833 -0.98002,-0.85896 -1.74346,-2.92648 -1.74346,-4.72155 0,-2.68733 1.31846,-4.4867 8.31906,-11.3534 4.57548,-4.48797 9.30655,-8.85162 10.51349,-9.69699 1.76861,-1.23879 2.13587,-2.33714 1.89264,-5.66041 -0.29919,-4.08796 -0.3951,-4.18116 -11.16602,-10.85081 -13.66386,-8.46103 -14.54049,-9.26775 -14.54049,-13.38067 0,-3.82308 1.99624,-5.5279 16.8972,-14.4305 l 8.94906,-5.34662 0.0283,-4.17763 c 0.0208,-3.07516 -0.49968,-4.54744 -1.97239,-5.57896 -1.10037,-0.77074 -5.80772,-5.07421 -10.46077,-9.56329 -7.26057,-7.00469 -8.46008,-8.62845 -8.46008,-11.45217 0,-1.88726 0.74342,-3.94183 1.74346,-4.81834 0.9589,-0.84044 7.30539,-3.5802 14.10329,-6.08833 6.79791,-2.50814 12.72973,-4.93015 13.18182,-5.38223 0.45209,-0.4521 1.08819,-2.153 1.41355,-3.7798 0.50919,-2.54595 -0.47039,-4.41437 -7.03498,-13.41843 -8.82147,-12.0996 -9.76054,-14.02217 -8.48622,-17.3739 1.34579,-3.53968 3.40951,-4.29947 18.25626,-6.72131 13.05401,-2.12941 13.44014,-2.26435 15.05398,-5.26107 1.64501,-3.0546 1.61508,-3.1681 -4.38285,-16.61834 -5.08691,-11.40728 -5.88575,-13.94628 -5.06616,-16.10199 1.69897,-4.46861 4.14777,-5.01416 19.682,-4.38475 l 14.22134,0.57621 2.01908,-2.83554 2.01908,-2.83553 -2.99445,-12.6041 c -3.43722,-14.46774 -3.56708,-16.19757 -1.44357,-19.22931 2.09601,-2.99247 6.04323,-2.85913 20.84213,0.70404 l 11.93224,2.87297 2.88282,-2.05275 2.88282,-2.05275 -0.71095,-14.74319 -0.71095,-14.74319 2.53802,-2.53802 c 1.39592,-1.39592 3.34297,-2.52975 4.32678,-2.51963 0.98381,0.0101 7.61689,2.65052 14.74017,5.86755 12.56078,5.67271 13.04159,5.80356 15.94023,4.33808 1.64383,-0.83108 3.07013,-1.57275 3.16956,-1.64815 0.0994,-0.0754 1.14558,-6.18277 2.32478,-13.57193 2.28164,-14.29732 3.57172,-17.53001 7.3769,-18.48505 3.02477,-0.75916 4.7635,0.17197 17.32984,9.28054 l 10.27581,7.4483 3.52497,-1.35612 c 3.33801,-1.28419 3.7809,-2.03832 8.3499,-14.21772 2.65371,-7.07389 5.50046,-13.53715 6.32612,-14.36281 0.82567,-0.82566 2.95432,-1.50121 4.73034,-1.50121 2.81966,0 4.49956,1.35791 13.24794,10.70863 9.42678,10.07583 10.22333,10.68907 13.47994,10.37775 3.23595,-0.30935 3.95364,-1.10866 11.03144,-12.28604 11.84649,-18.7082 13.83452,-18.77382 24.86741,-0.82087 3.98154,6.47887 7.73818,12.10914 8.34807,12.51171 0.60988,0.40257 2.45384,0.71418 4.09767,0.69246 2.48132,-0.0328 4.50244,-1.67949 11.90339,-9.69832 8.82512,-9.56189 11.76231,-12.04575 14.32518,-12.11419 3.13999,-0.0838 6.84462,5.80367 11.10905,17.65491 4.24238,11.78993 4.51268,12.24358 7.84307,13.16315 1.89709,0.52381 3.93965,0.65268 4.53902,0.28637 0.59937,-0.36631 5.97607,-4.16021 11.94823,-8.43089 5.97215,-4.27069 11.66321,-7.76488 12.6468,-7.76488 0.9836,0 2.94716,1.00871 4.36348,2.24159 2.21698,1.92982 2.84993,3.9044 4.55089,14.19676 2.72882,16.51209 2.63495,16.22545 5.85942,17.89289 2.77693,1.436 3.3641,1.27197 15.98343,-4.46507 7.20532,-3.27571 13.68668,-5.95584 14.403,-5.95584 0.71633,0 2.48367,0.92918 3.92743,2.06484 l 2.62501,2.06484 v 15.19612 c 0,14.47203 0.10681,15.29627 2.2416,17.29785 l 2.24159,2.10172 13.9477,-3.28247 c 8.11958,-1.91087 14.7674,-2.98582 15.9094,-2.57254 1.07893,0.39047 2.80941,1.84535 3.84549,3.23307 1.8635,2.49594 1.8504,2.66367 -1.2145,15.55601 -3.67676,15.46613 -3.69566,15.82036 -0.99739,18.69255 2.04294,2.17461 2.49719,2.22027 16.46019,1.65452 14.04899,-0.56923 14.41263,-0.53169 16.8281,1.73754 1.35786,1.27564 2.46883,3.29651 2.46883,4.49083 0,1.19432 -2.46575,7.60251 -5.47945,14.24042 -3.0137,6.63791 -5.47945,12.55379 -5.47945,13.14641 0,0.59262 0.65203,2.33838 1.44896,3.87948 1.3822,2.67287 2.0823,2.90296 15.19303,4.99293 21.70102,3.45937 22.58187,5.53502 9.82099,23.14269 -8.21764,11.33884 -8.38215,11.6776 -7.33222,15.09859 1.03603,3.37569 1.52916,3.66693 13.93968,8.23251 13.21091,4.86004 16.73852,7.33918 16.74659,11.76919 0.003,1.39103 -3.75162,5.67206 -11.04557,12.59576 -10.84199,10.29162 -11.03695,10.5549 -10.38576,14.02602 0.60842,3.24317 1.66152,4.14931 12.656,10.8899 18.40101,11.28144 18.41235,13.45043 0.12945,24.73604 -11.09203,6.84686 -12.18539,7.78773 -12.78903,11.00538 -0.64656,3.44649 -0.43406,3.73299 10.38934,14.00696 7.29395,6.9237 11.0481,11.20473 11.04557,12.59576 -0.008,4.43001 -3.53568,6.90915 -16.74659,11.76919 -12.3746,4.55237 -12.90627,4.86533 -13.92953,8.19946 -1.03557,3.37416 -0.84043,3.77909 7.33222,15.21421 12.64654,17.69498 11.79105,19.69661 -9.87396,23.1027 -13.07941,2.0563 -13.77046,2.28222 -15.15181,4.95345 -0.79606,1.53939 -1.44736,3.28376 -1.44736,3.87638 0,0.59262 2.46575,6.5085 5.47945,13.14641 3.0137,6.63791 5.47945,13.0461 5.47945,14.24042 0,1.19432 -1.1082,3.21259 -2.46267,4.48506 -2.40363,2.25808 -2.80801,2.30063 -16.86287,1.77453 -13.91212,-0.52075 -14.47021,-0.46448 -16.46633,1.6603 -2.65997,2.8314 -2.6388,3.21388 1.03214,18.65555 3.0649,12.89234 3.078,13.06006 1.2145,15.556 -1.03608,1.38773 -2.76656,2.84261 -3.84549,3.23308 -1.142,0.41328 -7.78982,-0.66167 -15.9094,-2.57254 l -13.9477,-3.28247 -2.24159,2.10172 c -2.13479,2.00159 -2.2416,2.82582 -2.2416,17.29785 v 15.19612 l -2.62501,2.06484 c -1.44376,1.13566 -3.2111,2.06484 -3.92743,2.06484 -0.71632,0 -7.22367,-2.69195 -14.46077,-5.9821 l -13.15836,-5.9821 -3.01858,1.76294 c -2.92071,1.70579 -3.09171,2.21465 -5.27449,15.69567 -1.99766,12.33785 -2.55374,14.18933 -4.85779,16.17433 -1.43103,1.23288 -3.40663,2.24159 -4.39023,2.24159 -0.98359,0 -6.67465,-3.49419 -12.6468,-7.76488 -5.97216,-4.27068 -11.34886,-8.06459 -11.94823,-8.43089 -0.59937,-0.36631 -2.64193,-0.23744 -4.53902,0.28637 -3.33039,0.91956 -3.60069,1.37321 -7.84307,13.16315 -4.26443,11.85124 -7.96906,17.73876 -11.10905,17.65491 -2.56287,-0.0684 -5.50006,-2.55229 -14.32518,-12.1142 -7.40095,-8.01882 -9.42207,-9.66554 -11.90339,-9.69832 -1.64383,-0.0217 -3.48779,0.28989 -4.09767,0.69247 -0.60989,0.40257 -4.36653,6.03283 -8.34807,12.51171 -4.74276,7.71751 -8.07602,12.09792 -9.66582,12.70236 -2.91224,1.10723 -2.2958,1.14712 -5.21493,-0.33741 z m 35.93234,-74.39832 c 21.49345,-3.80064 47.11482,-12.52101 48.0289,-16.34692 0.28143,-1.17793 2.16515,-9.98728 4.18605,-19.57632 2.02089,-9.58904 4.52492,-18.84392 5.56452,-20.56641 2.06793,-3.42631 7.19319,-6.33271 11.16735,-6.33271 1.39246,0 9.75652,1.56911 18.58681,3.48692 8.83029,1.91781 16.68375,3.48692 17.45213,3.48692 1.90066,0 19.40964,-19.26157 19.40964,-21.35247 0,-0.31094 -19.52413,-0.56533 -43.38696,-0.56533 -48.83291,0 -46.0255,0.4028 -54.55857,-7.82819 -5.58923,-5.39136 -10.72266,-13.51046 -13.00277,-20.56534 -0.88547,-2.73973 -3.37707,-13.37523 -5.53689,-23.63445 -2.15983,-10.25923 -5.11286,-21.29569 -6.56229,-24.52547 -3.16644,-7.05575 -9.16074,-13.18895 -15.93135,-16.30051 -4.77851,-2.19606 -6.16773,-2.30165 -34.12204,-2.59367 l -29.14072,-0.30439 v 18.46881 18.46882 l 24.65753,0.26647 24.65753,0.26647 0.26411,29.14072 0.26412,29.14073 h -81.21057 c -51.33996,0 -81.21056,0.35252 -81.21056,0.95844 0,1.42511 14.83789,18.98866 16.61937,19.67228 0.84351,0.32369 9.33504,-1.08202 18.87008,-3.12379 18.68707,-4.00153 21.42663,-4.00238 26.17357,-0.008 3.81313,3.20854 4.42882,5.0128 8.94487,26.21242 2.23752,10.50354 4.47578,18.6762 5.25116,19.17382 0.74328,0.47701 5.83984,2.61299 11.3257,4.74662 12.09684,4.70485 30.68609,9.46799 42.82771,10.97375 4.9315,0.6116 10.31133,1.29751 11.95516,1.52426 7.56654,1.04368 37.42409,-0.41257 48.45641,-2.36339 z m 92.24564,-13.65425 c 11.26385,-8.40967 8.44836,-25.69911 -4.76433,-29.25692 -8.3029,-2.23574 -18.74006,4.12359 -20.28515,12.35969 -1.33001,7.0895 2.3349,14.73917 8.59005,17.9298 4.31364,2.2003 12.84632,1.66501 16.45943,-1.03257 z m -235.40484,-0.30393 c 7.21884,-4.75862 9.75526,-15.37909 5.26439,-22.04308 -7.03455,-10.43857 -21.16809,-10.6738 -27.15846,-0.45201 -4.66494,7.96012 -2.08611,18.55763 5.49789,22.5932 4.65956,2.47942 12.55774,2.43217 16.39618,-0.0981 z M 755.49947,451.76296 c 11.10933,-3.29911 15.52433,-10.61444 16.65955,-27.60356 l 0.71564,-10.70984 h 10.71635 c 8.85288,0 10.82151,-0.27403 11.32108,-1.57588 0.79995,-2.08463 0.64014,-23.64119 -0.21632,-29.17881 l -0.67335,-4.3537 -18.89114,-8.38537 c -10.39013,-4.61197 -19.67662,-9.09625 -20.63667,-9.96508 -0.96005,-0.86883 -2.47193,-3.48168 -3.35972,-5.80634 -2.07,-5.42023 -1.91057,-5.95012 9.40669,-31.26431 4.9898,-11.16109 9.07237,-20.76277 9.07237,-21.33707 0,-2.06894 -14.8715,-23.30979 -22.12114,-31.59545 -27.54735,-31.48408 -66.56283,-54.62844 -105.76477,-62.7407 l -5.84357,-1.20923 -4.11907,3.86017 c -2.26549,2.1231 -9.07482,8.61134 -15.13185,14.41832 -11.66479,11.18324 -14.29045,12.5857 -21.19462,11.32079 -3.05307,-0.55934 -5.96502,-3.06517 -17.6058,-15.15042 l -13.9477,-14.48023 -10.46077,2.52499 c -27.53741,6.6469 -54.97576,20.26213 -76.71233,38.06557 -8.06723,6.60751 -21.91781,20.15463 -21.91781,21.43761 0,0.60565 38.9208,0.95686 106.03698,0.95686 116.21639,0 112.36664,-0.18033 127.76346,5.98486 20.46139,8.19314 36.91921,24.60018 42.42348,42.29257 2.99732,9.63428 2.96622,22.61201 -0.0741,30.92556 -4.5052,12.31916 -16.09013,25.77104 -30.63634,35.57344 -3.49085,2.35242 -6.36121,4.56249 -6.37857,4.91128 -0.0174,0.3488 3.10457,3.19992 6.93761,6.33585 12.04916,9.8578 17.83582,19.83504 22.83754,39.37608 2.41335,9.42862 3.40701,11.79967 5.73433,13.68299 6.05228,4.89769 16.84571,6.42557 26.06056,3.68905 z M 468.74222,389.53923 V 326.7746 h -14.42117 -14.42117 l 0.87629,2.24159 c 0.48196,1.23288 2.26414,5.30954 3.9604,9.05925 3.78274,8.36205 4.02121,13.91303 0.80285,18.68881 -1.91718,2.84494 -5.25289,4.71819 -20.90142,11.73773 -18.31237,8.21445 -18.63089,8.40972 -19.26928,11.8126 -0.35701,1.90304 -0.3933,12.71476 -0.0806,24.02605 0.54564,19.74008 1.82003,29.67737 5.61175,43.75875 l 1.13215,4.20448 h 28.35512 28.35513 z m 164.7243,-26.32598 c 18.45522,-6.9598 16.09077,-27.22525 -3.89677,-33.39876 -6.12017,-1.89033 -9.14958,-2.04363 -40.38453,-2.04363 h -33.76803 v 18.99511 18.99511 l 36.6127,-0.36432 c 32.4599,-0.323 37.15986,-0.57066 41.43663,-2.18351 z m 161.45283,-7.93942 c 4.35829,-1.82101 8.61547,-7.51751 9.27111,-12.40556 2.13218,-15.89665 -16.85867,-24.96389 -27.78617,-13.26657 -5.85231,6.26461 -6.10389,14.6285 -0.64861,21.56376 4.06057,5.16218 12.37532,6.94473 19.16367,4.10837 z m -375.94246,-1.85256 c 9.82548,-6.62139 9.7731,-20.76927 -0.10174,-27.47777 -2.87492,-1.95308 -4.4088,-2.27222 -9.43478,-1.96302 -7.14212,0.43941 -10.54524,2.55549 -13.41095,8.33904 -3.33161,6.72386 -2.09929,14.37021 3.11359,19.31939 3.26574,3.10053 5.54337,3.89119 11.4195,3.96419 3.69927,0.046 5.98996,-0.54801 8.41438,-2.18183 z M 608.34366,209.77441 c 4.91718,-3.34131 7.18478,-8.45598 6.64339,-14.98448 -0.79709,-9.61188 -7.38901,-15.07446 -17.20833,-14.26017 -9.18515,0.76171 -14.46985,6.74818 -14.46242,16.38295 0.007,9.32067 6.22758,15.28121 15.95431,15.2878 4.18957,0.003 6.34784,-0.57428 9.07305,-2.4261 z"
       id="path2"
       transform="matrix(0.19624875,0,0,0.19624875,-65.41725,-26.1665)" /></g></svg>
